<?xml version="1.0" encoding="iso-8859-1"?>
<!-- Uploaded to: SVG Repo, www.svgrepo.com, Generator: SVG Repo Mixer Tools -->
<!DOCTYPE svg PUBLIC "-//W3C//DTD SVG 1.1//EN" "http://www.w3.org/Graphics/SVG/1.1/DTD/svg11.dtd">
<svg fill="#000000" height="800px" width="800px" version="1.1" id="Capa_1" xmlns="http://www.w3.org/2000/svg" xmlns:xlink="http://www.w3.org/1999/xlink" 
	 viewBox="0 0 438.751 438.751" xml:space="preserve">
<path d="M424.11,267.688c10.343-15.565,8.661-36.818-5.051-50.531c-12.597-12.595-31.555-15.034-46.624-7.331l-5.572-5.572
	c-30.201-30.193-73.153-40.051-111.678-29.578c0.03-0.035,0.049-0.059,0.049-0.059c-38.288,6.904-77.571-5.398-105.086-32.914
	l-0.002-0.002l0,0l-18.793-18.793l4.136-4.136c1.126-1.126,1.758-2.651,1.758-4.243c0-1.591-0.632-3.117-1.758-4.242L27.001,1.798
	c-2.342-2.344-6.143-2.343-8.484-0.001L1.758,18.555C0.632,19.681,0,21.207,0,22.798c0,1.591,0.632,3.117,1.758,4.242
	l108.488,108.488c1.171,1.172,2.706,1.758,4.242,1.758c1.535,0,3.071-0.586,4.242-1.757l4.137-4.137l18.793,18.792
	c27.456,27.456,39.763,66.632,32.955,104.839c-2.692,9.832-4.085,20.087-4.085,30.557c0,30.72,11.965,59.599,33.689,81.317
	l38.118,38.119c21.717,21.728,50.6,33.693,81.329,33.693c30.723,0,59.602-11.966,81.316-33.692
	C441.579,368.423,449.177,312.502,424.11,267.688z M14.485,22.798l8.273-8.272l100.003,100.003l-8.273,8.272L14.485,22.798z
	 M390.708,217.427c7.193,0,14.39,2.739,19.866,8.215c10.953,10.954,10.953,28.778,0,39.732c-5.308,5.307-12.362,8.229-19.866,8.229
	c-7.505,0-14.56-2.922-19.867-8.229c-10.953-10.954-10.953-28.778,0-39.731C376.319,220.166,383.512,217.427,390.708,217.427z
	 M173.578,173.616c15.765,8.235,33.074,13.193,50.852,14.522c-7.18,4.504-13.969,9.874-20.21,16.116
	c-6.189,6.188-11.582,12.959-16.136,20.187C186.752,206.674,181.808,189.372,173.578,173.616z M396.497,396.535
	c-19.449,19.459-45.314,30.176-72.83,30.176c-27.522,0-53.392-10.717-72.843-30.177l-38.12-38.121
	c-19.458-19.453-30.174-45.318-30.174-72.832c0-27.515,10.716-53.384,30.174-72.842c40.158-40.156,105.508-40.156,145.674,0
	l4.204,4.205c-0.074,0.073-0.152,0.141-0.226,0.214c-15.633,15.633-15.633,41.068,0,56.701c7.816,7.817,18.084,11.726,28.351,11.726
	c8.772,0,17.538-2.862,24.781-8.568C435.666,316.533,428.337,364.695,396.497,396.535z"/>
</svg>